<svg width="362" height="65" viewBox="0 0 362 65" fill="none" xmlns="http://www.w3.org/2000/svg">
<g clip-path="url(#clip0_5282_46)">
<path d="M150.388 29.5819L144.09 21.9915H142.413V29.5819H136.995V10.332H142.413V17.8669H143.98L149.892 10.332H156.272L148.297 19.5992L156.987 29.5819H150.388Z" fill="#040606"/>
<path d="M171.259 10.332H179.619V29.5819H174.367V14.4844L167.849 29.5819H159.462V10.332H164.714V25.4843L171.259 10.332Z" fill="#040606"/>
<path d="M197.987 10.332H203.405V29.5819H197.987V21.9915H189.325V29.5819H183.908V10.332H189.325V17.5643H197.987V10.332Z" fill="#040606"/>
<path d="M213.54 15.8992C212.559 16.8982 212.069 18.25 212.069 19.9553C212.069 21.6603 212.559 23.0125 213.54 24.0115C214.521 25.0109 215.9 25.51 217.679 25.51C219.439 25.51 220.814 25.0109 221.804 24.0115C222.794 23.0125 223.288 21.6603 223.288 19.9553C223.288 18.25 222.794 16.8982 221.804 15.8992C220.814 14.9002 219.439 14.4002 217.679 14.4002C215.9 14.4002 214.521 14.9002 213.54 15.8992ZM209.539 27.2838C207.614 25.5332 206.651 23.09 206.651 19.9553C206.651 16.8203 207.614 14.3774 209.539 12.6265C211.464 10.8763 214.177 10 217.679 10C221.162 10 223.87 10.8763 225.805 12.6265C227.739 14.3774 228.706 16.8203 228.706 19.9553C228.706 23.09 227.739 25.5332 225.805 27.2838C223.87 29.0348 221.162 29.9103 217.679 29.9103C214.177 29.9103 211.464 29.0348 209.539 27.2838Z" fill="#040606"/>
<path d="M233.765 27.2564C231.859 25.4872 230.905 23.0535 230.905 19.9553C230.905 16.8572 231.836 14.4235 233.697 12.6538C235.558 10.885 238.147 10 241.465 10C244.233 10 246.47 10.6052 248.175 11.8152C249.88 13.0252 250.925 14.6846 251.31 16.7925L246.113 17.178C245.856 16.3344 245.31 15.6608 244.477 15.1563C243.642 14.6527 242.639 14.4002 241.465 14.4002C239.778 14.4002 238.499 14.9225 237.629 15.968C236.758 17.0126 236.323 18.342 236.323 19.9553C236.323 21.6603 236.804 23.0125 237.767 24.0115C238.729 25.0109 240.063 25.51 241.768 25.51C243.033 25.51 244.064 25.2265 244.862 24.6578C245.659 24.0899 246.186 23.3557 246.442 22.4574L251.668 22.7605C251.319 25.0885 250.311 26.8622 248.643 28.0814C246.974 29.3009 244.683 29.9103 241.768 29.9103C238.339 29.9103 235.672 29.0261 233.765 27.2564Z" fill="#040606"/>
<path d="M271.77 10.332V14.7596H264.978V29.5819H259.56V14.7596H252.768V10.332H271.77Z" fill="#040606"/>
<path d="M288.269 10.3274H294.1L288.572 23.3623C287.582 25.6542 286.51 27.2903 285.355 28.2707C284.2 29.2519 282.632 29.7423 280.653 29.7423C279.479 29.7423 278.288 29.6689 277.077 29.5218V25.3147C278.25 25.4246 279.14 25.4797 279.745 25.4797C281.303 25.4797 282.311 24.9483 282.77 23.8846V23.8568H280.322L272.76 10.3274H278.782L284.282 21.2996L288.269 10.3274Z" fill="#040606"/>
<path d="M300.836 21.7116C300.561 23.0687 300.222 24.2141 299.818 25.1489H307.573V14.7545H301.799C301.542 17.5592 301.221 19.8785 300.836 21.7116ZM312.991 25.1489H315.219V33.9767H310.158V29.5768H297.948V33.9767H292.889V25.1489H294.786C296.014 23.2976 296.72 18.3564 296.903 10.3269H312.991V25.1489Z" fill="#040606"/>
<path d="M329.491 10.332H337.852V29.5819H332.599V14.4844L326.082 29.5819H317.694V10.332H322.947V25.4843L329.491 10.332Z" fill="#040606"/>
<path d="M349.291 18.6367H354.818V14.6493H349.291C347.457 14.6493 346.541 15.3188 346.541 16.6569C346.541 17.9768 347.457 18.6367 349.291 18.6367ZM348.823 10.332H360.236V29.5819H354.818V22.6792H351.958L347.036 29.5819H340.436L346.21 22.4591C342.819 21.8543 341.123 19.9201 341.123 16.6569C341.123 14.5117 341.852 12.9216 343.31 11.8857C344.767 10.8498 346.605 10.332 348.823 10.332Z" fill="#040606"/>
<path d="M157.057 36.9155V40.7089H141.611V64.289H136.997V36.9155H157.057Z" fill="#040606"/>
<path d="M166.189 43.1135C164.456 45.0557 163.589 47.5519 163.589 50.6019C163.589 53.6521 164.456 56.1489 166.189 58.0905C167.923 60.033 170.354 61.0034 173.482 61.0034C176.61 61.0034 179.041 60.033 180.775 58.0905C182.509 56.1489 183.375 53.6521 183.375 50.6019C183.375 47.5519 182.509 45.0557 180.775 43.1135C179.041 41.1719 176.61 40.2002 173.482 40.2002C170.354 40.2002 167.923 41.1719 166.189 43.1135ZM162.768 60.8865C160.239 58.3055 158.975 54.8779 158.975 50.6019C158.975 46.3266 160.239 42.8984 162.768 40.3176C165.296 37.7366 168.868 36.4463 173.482 36.4463C178.097 36.4463 181.668 37.7366 184.197 40.3176C186.725 42.8984 187.99 46.3266 187.99 50.6019C187.99 54.8779 186.725 58.3055 184.197 60.8865C181.668 63.4674 178.097 64.7578 173.482 64.7578C168.868 64.7578 165.296 63.4674 162.768 60.8865Z" fill="#040606"/>
<path d="M206.955 50.1722C208.676 50.1722 210.038 49.7751 211.042 48.9796C212.046 48.1848 212.548 47.0047 212.548 45.4407C212.548 43.8763 212.046 42.697 211.042 41.902C210.038 41.1068 208.676 40.7089 206.955 40.7089H197.845V50.1722H206.955ZM207.346 36.9155C210.24 36.9155 212.6 37.6265 214.425 39.0471C216.249 40.4681 217.162 42.5991 217.162 45.4407C217.162 48.2828 216.276 50.3744 214.504 51.7171C212.73 53.0598 210.371 53.7309 207.426 53.7309H197.845V64.289H193.23V36.9155H207.346Z" fill="#040606"/>
<path d="M235.618 60.4956C237.339 60.4956 238.701 60.1047 239.705 59.3226C240.708 58.5406 241.21 57.3937 241.21 55.8815C241.21 54.3697 240.708 53.2226 239.705 52.4401C238.701 51.6578 237.339 51.2669 235.618 51.2669H226.82V60.4956H235.618ZM236.009 47.5914C238.929 47.5914 241.295 48.2757 243.107 49.6444C244.918 51.0129 245.825 53.105 245.825 55.9205C245.825 58.7364 244.918 60.8351 243.107 62.2163C241.295 63.5984 238.929 64.289 236.009 64.289H222.205V36.9155H226.82V47.5914H236.009Z" fill="#040606"/>
<path d="M271.008 64.289L260.293 52.2445H255.288V64.289H250.674V36.9155H255.288V48.686H260.176L270.344 36.9155H275.818L263.774 50.1722L276.717 64.289H271.008Z" fill="#040606"/>
<path d="M283.814 43.1135C282.081 45.0557 281.214 47.5519 281.214 50.6019C281.214 53.6521 282.081 56.1489 283.814 58.0905C285.548 60.033 287.979 61.0034 291.108 61.0034C294.236 61.0034 296.667 60.033 298.401 58.0905C300.134 56.1489 301.001 53.6521 301.001 50.6019C301.001 47.5519 300.134 45.0557 298.401 43.1135C296.667 41.1719 294.236 40.2002 291.108 40.2002C287.979 40.2002 285.548 41.1719 283.814 43.1135ZM280.393 60.8865C277.864 58.3055 276.6 54.8779 276.6 50.6019C276.6 46.3266 277.864 42.8984 280.393 40.3176C282.922 37.7366 286.493 36.4463 291.108 36.4463C295.722 36.4463 299.293 37.7366 301.822 40.3176C304.351 42.8984 305.616 46.3266 305.616 50.6019C305.616 54.8779 304.351 58.3055 301.822 60.8865C299.293 63.4674 295.722 64.7578 291.108 64.7578C286.493 64.7578 282.922 63.4674 280.393 60.8865Z" fill="#040606"/>
<path d="M330.916 36.9155V40.7089H315.469V64.289H310.854V36.9155H330.916Z" fill="#040606"/>
<path d="M340.046 43.1135C338.312 45.0557 337.446 47.5519 337.446 50.6019C337.446 53.6521 338.312 56.1489 340.046 58.0905C341.78 60.033 344.211 61.0034 347.34 61.0034C350.468 61.0034 352.898 60.033 354.632 58.0905C356.366 56.1489 357.232 53.6521 357.232 50.6019C357.232 47.5519 356.366 45.0557 354.632 43.1135C352.898 41.1719 350.468 40.2002 347.34 40.2002C344.211 40.2002 341.78 41.1719 340.046 43.1135ZM336.624 60.8865C334.095 58.3055 332.831 54.8779 332.831 50.6019C332.831 46.3266 334.095 42.8984 336.624 40.3176C339.153 37.7366 342.725 36.4463 347.34 36.4463C351.954 36.4463 355.524 37.7366 358.054 40.3176C360.582 42.8984 361.847 46.3266 361.847 50.6019C361.847 54.8779 360.582 58.3055 358.054 60.8865C355.524 63.4674 351.954 64.7578 347.34 64.7578C342.725 64.7578 339.153 63.4674 336.624 60.8865Z" fill="#040606"/>
<path d="M16.3584 9.92676H24.4305V64.8594H14.3583V22.2847L0 30.4994V19.3561L16.3584 9.92676Z" fill="#040606"/>
<path d="M51.09 9.92669H59.1617V64.8593H49.0899V22.2846L34.7314 30.428V19.2842L51.09 9.85498V9.92669Z" fill="#040606"/>
<path d="M94.7743 51.781L93.2497 52.7509L85.9843 57.3596L80.9946 60.5711L74.2025 64.9258H66.7754L79.2042 59.0696L84.7021 56.5282L86.6313 55.6385L94.7743 51.781Z" fill="#ED2035"/>
<path d="M94.7742 9.9159V51.7763L86.6312 55.6339L84.7019 56.5234V22.2755L70.3447 30.4186V19.2722L86.7004 9.84668V9.9159H94.7742Z" fill="#040606"/>
<path d="M119.562 18.7811V18.643L115.993 26.0005L96.772 64.9961H106.417L118.776 25.0649L120.416 19.8555L122.773 12.2783L119.562 18.7811ZM82.8418 64.927H89.2757L107.272 40.9932L82.8418 64.927ZM114.422 64.927H127.566V0L114.422 64.927Z" fill="#ED2035"/>
</g>
<defs>
<clipPath id="clip0_5282_46">
<rect width="362" height="65" fill="white"/>
</clipPath>
</defs>
</svg>
